<svg id="Layer_1" height="512" viewBox="0 0 128 128" width="512" xmlns="http://www.w3.org/2000/svg" xmlns:xlink="http://www.w3.org/1999/xlink" data-name="Layer 1"><linearGradient id="linear-gradient" gradientUnits="userSpaceOnUse" x1="105.881" x2="22.161" y1="105.853" y2="22.133"><stop offset="0" stop-color="#30ade0"/><stop offset="1" stop-color="#85c646"/></linearGradient><path d="m91.82 13.636a1.753 1.753 0 0 1 2.4-.611q1.146.681 2.258 1.411a1.75 1.75 0 0 1 -1.921 2.926q-1.046-.687-2.124-1.327a1.752 1.752 0 0 1 -.613-2.399zm-11.313 107.257a1.747 1.747 0 0 1 -.505.143 58.944 58.944 0 0 1 -32.01 0 1.763 1.763 0 0 1 -.481-.137 59.5 59.5 0 0 1 -34.5-26.772 1.714 1.714 0 0 1 -.315-.547 58.859 58.859 0 0 1 -7.946-29.58 59.76 59.76 0 0 1 .893-10.3 1.75 1.75 0 0 1 3.447.6 56.278 56.278 0 0 0 -.8 7.949h22.655a121.69 121.69 0 0 1 2.921-25.5h-18.5a54.846 54.846 0 0 0 -3.4 7.191 1.75 1.75 0 1 1 -3.266-1.259 58.174 58.174 0 0 1 4.041-8.392 1.687 1.687 0 0 1 .2-.339 59.894 59.894 0 0 1 34.43-26.772 1.739 1.739 0 0 1 .781-.231 58.779 58.779 0 0 1 31.989.042 1.769 1.769 0 0 1 .212.062 58.934 58.934 0 0 1 7.62 2.75 1.75 1.75 0 1 1 -1.417 3.199c-.7-.311-1.41-.594-2.12-.874a74.1 74.1 0 0 1 8.847 21.124h17.21a55.878 55.878 0 0 0 -10.493-11.822 1.75 1.75 0 0 1 2.261-2.672 59.371 59.371 0 0 1 12.809 15.21 1.763 1.763 0 0 1 .215.381 59.1 59.1 0 0 1 .023 59.232 1.714 1.714 0 0 1 -.315.547 59.5 59.5 0 0 1 -34.486 26.767zm-1.735-3.145c4.55-5.586 8.292-13.488 10.891-23h-23.913v24.956a55.542 55.542 0 0 0 13.022-1.956zm-16.522 1.958v-24.956h-23.913c2.6 9.511 6.341 17.412 10.891 23a55.542 55.542 0 0 0 13.022 1.956zm3.5-82.956v25.5h27.806a117.7 117.7 0 0 0 -3.015-25.5zm31.305 29a121.69 121.69 0 0 1 -2.921 25.5h18.476a55.363 55.363 0 0 0 7.1-25.5zm-31.305 0v25.5h24.791a117.715 117.715 0 0 0 3.015-25.5zm44.722 29h-17.189a74.112 74.112 0 0 1 -8.83 21.1 56.049 56.049 0 0 0 26.019-21.1zm2.15-58h-18.488a121.674 121.674 0 0 1 2.921 25.5h22.645a55.623 55.623 0 0 0 -7.078-25.5zm-33.87-26.522a55.427 55.427 0 0 0 -13-1.933v24.955h23.911c-2.603-9.525-6.352-17.435-10.911-23.022zm-29.552.056c-4.539 5.584-8.272 13.474-10.866 22.966h23.916v-24.966a55.117 55.117 0 0 0 -13.05 2zm-31.682 22.966h17.2a74.22 74.22 0 0 1 8.8-21.047 56.419 56.419 0 0 0 -26 21.047zm16.926 29h9.348a1.75 1.75 0 0 1 0 3.5h-9.348a117.7 117.7 0 0 0 3.015 25.5h24.791v-25.5h-9.417a1.75 1.75 0 0 1 0-3.5h9.417v-25.5h-24.791a117.715 117.715 0 0 0 -3.015 25.5zm-19.054 29h18.476a121.674 121.674 0 0 1 -2.921-25.5h-22.651a55.363 55.363 0 0 0 7.096 25.5zm28.157 24.6a74.145 74.145 0 0 1 -8.83-21.1h-17.189a56.049 56.049 0 0 0 26.019 21.096z" fill="url(#linear-gradient)"/></svg>