<svg height="512pt" viewBox="0 0 512 512" width="512pt" xmlns="http://www.w3.org/2000/svg"><path d="m512 256c0 141.386719-114.613281 256-256 256s-256-114.613281-256-256 114.613281-256 256-256 256 114.613281 256 256zm0 0" fill="#e76e54"/><g fill="#fff"><path d="m256 448c-106.039062 0-192-85.960938-192-192s85.960938-192 192-192 192 85.960938 192 192c-.113281 105.992188-86.007812 191.886719-192 192zm0-352c-88.367188 0-160 71.632812-160 160s71.632812 160 160 160 160-71.632812 160-160c-.097656-88.324219-71.675781-159.902344-160-160zm0 0"/><path d="m256 368c-61.855469 0-112-50.144531-112-112s50.144531-112 112-112 112 50.144531 112 112c-.070312 61.828125-50.171875 111.929688-112 112zm0-196c-46.390625 0-84 37.609375-84 84s37.609375 84 84 84 84-37.609375 84-84c-.054688-46.371094-37.628906-83.945312-84-84zm0 0"/><path d="m304 256c0 26.507812-21.492188 48-48 48s-48-21.492188-48-48 21.492188-48 48-48 48 21.492188 48 48zm0 0"/></g><path d="m422.753906 157.328125-67.9375-67.921875c-12.472656-12.492188-12.472656-32.722656 0-45.214844l43.984375-44.191406 113.199219 113.183594-43.953125 44.113281c-5.996094 6.015625-14.144531 9.402344-22.640625 9.410156-8.496094.003907-16.648438-3.371093-22.652344-9.378906zm0 0" fill="#77959e"/><path d="m491.359375 43.359375-212.640625 212.640625c-6.285156 6.238281-16.429688 6.238281-22.71875 0-6.1875-6.308594-6.1875-16.410156 0-22.71875l212.640625-212.640625zm0 0" fill="#57565c"/></svg>