<svg id="power-people" enable-background="new 0 0 300 300" height="512" viewBox="0 0 300 300" width="512" xmlns="http://www.w3.org/2000/svg"><g><circle cx="119.698" cy="140" fill="#e5efef" r="92"/><g fill="#4c241d"><path d="m231.698 44c-2.211 0-4-1.791-4-4v-8c0-2.209 1.789-4 4-4s4 1.791 4 4v8c0 2.209-1.789 4-4 4z"/><path d="m231.698 68c-2.211 0-4-1.791-4-4v-8c0-2.209 1.789-4 4-4s4 1.791 4 4v8c0 2.209-1.789 4-4 4z"/><path d="m223.698 52h-8c-2.211 0-4-1.791-4-4s1.789-4 4-4h8c2.211 0 4 1.791 4 4s-1.789 4-4 4z"/><path d="m247.698 52h-8c-2.211 0-4-1.791-4-4s1.789-4 4-4h8c2.211 0 4 1.791 4 4s-1.789 4-4 4z"/><path d="m41.698 88c-7.719 0-14-6.281-14-14s6.281-14 14-14 14 6.281 14 14-6.282 14-14 14zm0-20c-3.309 0-6 2.691-6 6s2.691 6 6 6 6-2.691 6-6-2.692-6-6-6z"/><path d="m272.302 90.391c0 2.362-1.914 4.277-4.276 4.277s-4.276-1.915-4.276-4.277 1.914-4.276 4.276-4.276 4.276 1.915 4.276 4.276z"/><path d="m88.302 42.391c0 2.362-1.914 4.277-4.276 4.277s-4.276-1.915-4.276-4.277 1.914-4.276 4.276-4.276 4.276 1.915 4.276 4.276z"/></g><g><path d="m235.698 228v-32l22.937-22.996c5.804-5.819 9.063-13.702 9.063-21.92v-3.428c0-2.388-.683-4.726-1.969-6.737l-14.031-21.95v-11.425c0-4.434-3.018-8.299-7.319-9.374-4.898-1.225-9.914 1.528-11.51 6.318l-1.17 3.511v-1.476c0-5.812-4.712-10.524-10.524-10.524-13.476 0-13.515 9.485-13.515 9.485h-7.929c-6.16 0-11.791 3.48-14.546 8.99l-5.748 1.916c-4.62 1.54-7.736 5.864-7.736 10.734v27.324c0 6.246 1.291 12.425 3.792 18.148l8.207 18.786v36.618z" fill="#e7d1c4"/><path d="m235.698 232h-52c-2.211 0-4-1.791-4-4v-35.781l-7.871-18.021c-2.738-6.27-4.129-12.914-4.129-19.75v-27.324c0-6.604 4.211-12.441 10.473-14.527l4.273-1.424c3.668-6.016 10.145-9.688 17.285-9.688h4.699c1.664-4.465 6.32-9.484 16.746-9.484 4.66 0 8.816 2.209 11.477 5.633 3.297-3.098 8.051-4.506 12.695-3.344 6.098 1.525 10.352 6.977 10.352 13.256v10.254l13.402 20.967c1.699 2.662 2.598 5.734 2.598 8.891v3.428c0 9.344-3.633 18.133-10.23 24.744l-21.77 21.826v30.344c0 2.209-1.789 4-4 4zm-48-8h44v-28c0-1.059.422-2.074 1.168-2.824l22.938-22.996c5.09-5.104 7.895-11.885 7.895-19.096v-3.428c0-1.627-.465-3.211-1.34-4.582l-14.031-21.951c-.41-.643-.629-1.391-.629-2.154v-11.424c0-2.604-1.766-4.863-4.293-5.494-2.828-.711-5.812.914-6.738 3.701l-1.176 3.514c-.621 1.863-2.535 2.988-4.434 2.682-1.938-.314-3.359-1.986-3.359-3.947v-1.477c0-3.598-2.926-6.523-6.523-6.523-9.387 0-9.516 5.275-9.516 5.5-.008 2.203-1.797 3.984-4 3.984h-7.93c-4.672 0-8.875 2.598-10.969 6.781-.477.947-1.309 1.668-2.312 2.004l-5.746 1.916c-2.992.996-5.004 3.785-5.004 6.938v27.324c0 5.727 1.164 11.295 3.457 16.547l8.207 18.787c.223.506.336 1.051.336 1.602v32.616z" fill="#4c241d"/></g><path d="m207.1 150.471c-3.98 0-7.816-2.084-9.906-5.65l-12.359-21.094c-1.117-1.906-.48-4.357 1.426-5.475 1.906-1.121 4.355-.477 5.473 1.428l12.363 21.096c.816 1.395 2.512 2.035 4.055 1.523 1.656-.551 2.637-2.256 2.281-3.963l-6.688-32.033c-.453-2.164.934-4.283 3.098-4.734 2.145-.459 4.281.936 4.73 3.098l6.688 32.037c1.188 5.684-2.074 11.352-7.578 13.186-1.181.391-2.388.581-3.583.581z" fill="#4c241d"/><path d="m221.33 144c-5.152 0-9.629-3.492-10.879-8.492l-6.633-26.537c-.539-2.145.766-4.316 2.91-4.852 2.133-.549 4.312.768 4.848 2.91l6.633 26.535c.359 1.434 1.645 2.436 3.121 2.436 1.617 0 2.988-1.209 3.188-2.812l3.211-25.684c.273-2.189 2.262-3.746 4.465-3.473 2.191.273 3.746 2.273 3.473 4.465l-3.211 25.682c-.696 5.599-5.481 9.822-11.126 9.822z" fill="#4c241d"/><g><path d="m244.45 122.954c4.218-1.719 9.063-.232 11.589 3.558" fill="#ffe8dc"/><path d="m256.041 130.512c-1.293 0-2.562-.625-3.332-1.783-1.465-2.193-4.301-3.074-6.746-2.072-2.047.84-4.379-.145-5.215-2.193-.836-2.045.148-4.379 2.191-5.213 5.957-2.428 12.867-.307 16.426 5.045 1.227 1.838.727 4.322-1.109 5.547-.683.452-1.453.669-2.215.669z" fill="#4c241d"/></g><g><path d="m248.112 141.444-15.712 3.142c-3.863.773-7.697-1.452-8.943-5.19-1.302-3.906.65-8.151 4.462-9.704l16.531-6.738" fill="#e7d1c4"/><path d="m230.87 148.738c-4.992 0-9.578-3.186-11.207-8.076-1.961-5.887 1.004-12.332 6.746-14.674l16.531-6.74c2.047-.83 4.383.148 5.215 2.195.836 2.045-.148 4.381-2.191 5.215l-16.531 6.738c-1.855.756-2.812 2.836-2.18 4.736.605 1.818 2.48 2.912 4.363 2.531l15.711-3.143c2.188-.432 4.273.973 4.707 3.137.434 2.166-.973 4.273-3.137 4.707l-15.711 3.143c-.777.157-1.551.231-2.316.231z" fill="#4c241d"/></g><g><path d="m175.698 224h68v20h-68z" fill="#fff"/><path d="m243.698 248h-68c-2.211 0-4-1.791-4-4v-20c0-2.209 1.789-4 4-4h68c2.211 0 4 1.791 4 4v20c0 2.209-1.789 4-4 4zm-64-8h60v-12h-60z" fill="#4c241d"/></g><g><path d="m175.698 236h68v20h-68z" fill="#a9ba5a"/><path d="m243.698 260h-68c-2.211 0-4-1.791-4-4v-20c0-2.209 1.789-4 4-4h68c2.211 0 4 1.791 4 4v20c0 2.209-1.789 4-4 4zm-64-8h60v-12h-60z" fill="#4c241d"/></g><g><path d="m99.698 228v-32l22.937-22.996c5.804-5.819 9.063-13.702 9.063-21.92v-3.428c0-2.388-.683-4.726-1.969-6.737l-14.031-21.95v-11.425c0-4.434-3.018-8.299-7.319-9.374-4.898-1.225-9.914 1.528-11.51 6.318l-1.171 3.512v-1.476c0-5.812-4.712-10.524-10.524-10.524-13.476 0-13.515 9.485-13.515 9.485h-7.929c-6.16 0-11.791 3.48-14.546 8.99l-5.748 1.916c-4.62 1.54-7.736 5.864-7.736 10.734v27.324c0 6.246 1.291 12.425 3.792 18.148l8.207 18.786v36.617z" fill="#bf7e68"/><path d="m99.698 232h-52c-2.209 0-4-1.791-4-4v-35.781l-7.873-18.021c-2.736-6.266-4.125-12.912-4.125-19.75v-27.324c0-6.604 4.209-12.441 10.473-14.527l4.271-1.424c3.666-6.018 10.141-9.688 17.285-9.688h4.699c1.666-4.465 6.32-9.485 16.744-9.485 4.664 0 8.82 2.209 11.48 5.635 3.299-3.104 8.055-4.508 12.697-3.346 6.092 1.525 10.348 6.977 10.348 13.256v10.254l13.402 20.967c1.699 2.662 2.598 5.734 2.598 8.891v3.428c0 9.342-3.633 18.129-10.23 24.744l-21.77 21.826v30.345c.001 2.209-1.79 4-3.999 4zm-48-8h44v-28c0-1.059.42-2.074 1.168-2.824l22.938-22.996c5.09-5.105 7.895-11.887 7.895-19.096v-3.428c0-1.627-.463-3.211-1.34-4.582l-14.031-21.951c-.41-.643-.629-1.391-.629-2.154v-11.424c0-2.604-1.764-4.863-4.289-5.494-2.854-.709-5.814.914-6.746 3.703l-1.17 3.51c-.619 1.859-2.477 2.98-4.436 2.686-1.936-.314-3.359-1.986-3.359-3.949v-1.477c0-3.598-2.928-6.523-6.525-6.523-9.383 0-9.514 5.275-9.514 5.5-.01 2.203-1.797 3.984-4 3.984h-7.93c-4.676 0-8.877 2.598-10.967 6.779-.475.949-1.307 1.67-2.312 2.006l-5.748 1.916c-2.992.996-5.002 3.783-5.002 6.938v27.324c0 5.73 1.162 11.297 3.457 16.547l8.207 18.787c.221.506.334 1.051.334 1.602v32.616z" fill="#4c241d"/></g><path d="m55.168 156.426c-3.279 0-6.508-1.486-8.641-4.291l-13.967-17.652c-1.371-1.732-1.078-4.248.654-5.619 1.73-1.373 4.248-1.078 5.619.654l14.014 17.713c.975 1.283 2.686 1.555 3.945.682 1.117-.773 1.537-2.24.998-3.486l-12.277-28.361c-.879-2.027.053-4.383 2.08-5.26 2.021-.875 4.383.051 5.26 2.08l12.277 28.361c2.053 4.736.461 10.307-3.787 13.244-1.886 1.306-4.042 1.935-6.175 1.935z" fill="#4c241d"/><path d="m71.1 150.469c-3.979 0-7.814-2.084-9.902-5.648l-12.368-21.094c-1.117-1.906-.479-4.357 1.428-5.475 1.908-1.119 4.357-.479 5.475 1.428l12.367 21.095c.814 1.395 2.516 2.035 4.051 1.523 1.656-.551 2.635-2.254 2.277-3.961l-6.686-32.037c-.451-2.162.936-4.281 3.1-4.732 2.172-.441 4.281.934 4.732 3.1l6.686 32.035c1.186 5.68-2.072 11.35-7.578 13.186-1.178.392-2.387.58-3.582.58z" fill="#4c241d"/><g><path d="m39.698 224h68v20h-68z" fill="#fff"/><path d="m107.698 248h-68c-2.209 0-4-1.791-4-4v-20c0-2.209 1.791-4 4-4h68c2.209 0 4 1.791 4 4v20c0 2.209-1.791 4-4 4zm-64-8h60v-12h-60z" fill="#4c241d"/></g><path d="m85.33 144c-5.156 0-9.629-3.494-10.879-8.496l-6.635-26.533c-.535-2.145.768-4.314 2.91-4.852 2.139-.531 4.314.768 4.852 2.91l6.635 26.535c.357 1.434 1.641 2.436 3.117 2.436 1.617 0 2.986-1.209 3.188-2.814l3.211-25.682c.271-2.193 2.279-3.754 4.465-3.473 2.191.273 3.746 2.273 3.473 4.465l-3.211 25.682c-.7 5.599-5.483 9.822-11.126 9.822z" fill="#4c241d"/><g><path d="m39.698 236h68v20h-68z" fill="#fc8c29"/><path d="m107.698 260h-68c-2.209 0-4-1.791-4-4v-20c0-2.209 1.791-4 4-4h68c2.209 0 4 1.791 4 4v20c0 2.209-1.791 4-4 4zm-64-8h60v-12h-60z" fill="#4c241d"/></g><g><path d="m112.112 141.444-15.712 3.142c-3.863.773-7.697-1.452-8.943-5.19-1.302-3.906.65-8.151 4.462-9.704l16.531-6.738" fill="#bf7e68"/><path d="m94.871 148.738c-4.992 0-9.578-3.186-11.209-8.076-1.963-5.885 1-12.33 6.744-14.674l16.533-6.74c2.045-.838 4.379.148 5.215 2.195.832 2.045-.15 4.381-2.195 5.215l-16.531 6.738c-1.854.756-2.809 2.836-2.176 4.734.605 1.818 2.477 2.908 4.363 2.533l15.711-3.143c2.174-.432 4.273.973 4.707 3.137.434 2.166-.971 4.273-3.137 4.707l-15.711 3.143c-.774.157-1.55.231-2.314.231z" fill="#4c241d"/></g><g><path d="m167.698 228v-32l22.937-22.996c5.804-5.819 9.063-13.702 9.063-21.92v-3.428c0-2.388-.683-4.726-1.969-6.737l-14.031-21.95v-11.425c0-4.434-3.018-8.299-7.319-9.374-4.898-1.225-9.914 1.528-11.51 6.318l-1.17 3.511v-1.476c0-5.812-4.712-10.524-10.524-10.524-13.476 0-13.515 9.485-13.515 9.485h-7.929c-6.16 0-11.791 3.48-14.546 8.99l-5.748 1.916c-4.62 1.54-7.736 5.864-7.736 10.734v27.324c0 6.246 1.291 12.425 3.792 18.148l8.207 18.786v36.618z" fill="#ffe8dc"/><path d="m167.698 232h-52c-2.209 0-4-1.791-4-4v-35.781l-7.873-18.021c-2.736-6.266-4.125-12.912-4.125-19.75v-27.324c0-6.604 4.209-12.441 10.473-14.527l4.271-1.424c3.666-6.018 10.141-9.688 17.285-9.688h4.699c1.664-4.465 6.32-9.484 16.746-9.484 4.66 0 8.816 2.209 11.477 5.633 3.293-3.098 8.051-4.506 12.695-3.344 6.098 1.525 10.352 6.977 10.352 13.256v10.254l13.402 20.967c1.699 2.662 2.598 5.734 2.598 8.891v3.428c0 9.344-3.633 18.133-10.23 24.744l-21.77 21.826v30.344c0 2.209-1.789 4-4 4zm-48-8h44v-28c0-1.059.422-2.074 1.168-2.824l22.938-22.996c5.09-5.104 7.895-11.885 7.895-19.096v-3.428c0-1.627-.465-3.211-1.34-4.582l-14.031-21.951c-.41-.643-.629-1.391-.629-2.154v-11.424c0-2.604-1.766-4.863-4.293-5.494-2.824-.711-5.812.914-6.738 3.701l-1.176 3.514c-.621 1.863-2.52 2.988-4.434 2.682-1.938-.314-3.359-1.986-3.359-3.947v-1.477c0-3.598-2.926-6.523-6.523-6.523-9.387 0-9.516 5.275-9.516 5.5-.008 2.203-1.797 3.984-4 3.984h-7.93c-4.676 0-8.877 2.598-10.967 6.779-.475.949-1.307 1.67-2.312 2.006l-5.748 1.916c-2.992.996-5.002 3.783-5.002 6.938v27.324c0 5.73 1.162 11.297 3.457 16.547l8.207 18.787c.221.506.334 1.051.334 1.602v32.616z" fill="#4c241d"/></g><path d="m123.168 156.426c-3.279 0-6.508-1.486-8.641-4.291l-13.967-17.652c-1.371-1.732-1.078-4.248.654-5.619 1.734-1.373 4.248-1.078 5.619.654l14.014 17.713c.975 1.283 2.688 1.555 3.945.682 1.117-.773 1.537-2.24.998-3.486l-12.277-28.361c-.879-2.027.053-4.383 2.08-5.26 2.027-.875 4.383.051 5.26 2.08l12.277 28.361c2.053 4.736.461 10.307-3.787 13.244-1.886 1.306-4.042 1.935-6.175 1.935z" fill="#4c241d"/><path d="m139.1 150.469c-3.979.002-7.812-2.082-9.902-5.648l-12.367-21.094c-1.117-1.906-.479-4.357 1.428-5.475 1.906-1.119 4.355-.479 5.475 1.428l12.367 21.096c.816 1.395 2.508 2.035 4.051 1.523 1.656-.551 2.637-2.256 2.281-3.963l-6.688-32.033c-.453-2.164.934-4.283 3.098-4.734 2.145-.459 4.281.936 4.73 3.098l6.688 32.037c1.188 5.684-2.074 11.352-7.578 13.186-1.181.391-2.388.579-3.583.579z" fill="#4c241d"/><path d="m153.33 144c-5.152 0-9.629-3.492-10.879-8.492l-6.633-26.537c-.537-2.145.766-4.316 2.91-4.852 2.133-.549 4.312.768 4.848 2.91l6.633 26.535c.359 1.434 1.645 2.436 3.121 2.436 1.617 0 2.988-1.209 3.188-2.812l3.211-25.684c.273-2.189 2.258-3.746 4.465-3.473 2.191.273 3.746 2.273 3.473 4.465l-3.211 25.682c-.696 5.599-5.481 9.822-11.126 9.822z" fill="#4c241d"/><g><path d="m176.45 122.954c4.218-1.719 9.063-.232 11.589 3.558" fill="#ffe8dc"/><path d="m188.041 130.512c-1.293 0-2.562-.625-3.332-1.783-1.465-2.193-4.297-3.074-6.746-2.072-2.055.84-4.379-.145-5.215-2.193-.836-2.045.148-4.379 2.191-5.213 5.953-2.428 12.867-.307 16.426 5.045 1.227 1.838.727 4.322-1.109 5.547-.683.452-1.453.669-2.215.669z" fill="#4c241d"/></g><g><path d="m180.112 141.444-15.712 3.142c-3.863.773-7.697-1.452-8.943-5.19-1.302-3.906.65-8.151 4.462-9.704l16.531-6.738" fill="#ffe8dc"/><path d="m162.87 148.738c-4.992 0-9.578-3.186-11.207-8.076-1.961-5.887 1.004-12.332 6.746-14.674l16.531-6.74c2.051-.83 4.379.148 5.215 2.195.836 2.045-.148 4.381-2.191 5.215l-16.531 6.738c-1.855.756-2.812 2.836-2.18 4.736.605 1.818 2.48 2.912 4.363 2.531l15.711-3.143c2.188-.432 4.273.973 4.707 3.137.434 2.166-.973 4.273-3.137 4.707l-15.711 3.143c-.777.157-1.551.231-2.316.231z" fill="#4c241d"/></g><g><path d="m107.698 224h68v20h-68z" fill="#fff"/><path d="m175.698 248h-68c-2.209 0-4-1.791-4-4v-20c0-2.209 1.791-4 4-4h68c2.211 0 4 1.791 4 4v20c0 2.209-1.789 4-4 4zm-64-8h60v-12h-60z" fill="#4c241d"/></g><g><path d="m107.698 236h68v32h-68z" fill="#9dc1e4"/><path d="m175.698 272h-68c-2.209 0-4-1.791-4-4v-32c0-2.209 1.791-4 4-4h68c2.211 0 4 1.791 4 4v32c0 2.209-1.789 4-4 4zm-64-8h60v-24h-60z" fill="#4c241d"/></g><path d="m147.698 65.408c-2.211 0-4-1.791-4-4v-13.521c0-2.209 1.789-4 4-4s4 1.791 4 4v13.521c0 2.209-1.789 4-4 4z" fill="#4c241d"/><path d="m169.327 68.113c-.699 0-1.41-.184-2.055-.57-1.895-1.137-2.508-3.594-1.371-5.488l7.613-12.686c1.133-1.895 3.59-2.512 5.488-1.371 1.895 1.137 2.508 3.594 1.371 5.488l-7.613 12.686c-.75 1.25-2.074 1.941-3.433 1.941z" fill="#4c241d"/><path d="m126.067 68.113c-1.359 0-2.684-.691-3.434-1.943l-7.609-12.686c-1.137-1.893-.521-4.35 1.373-5.486 1.889-1.141 4.35-.523 5.486 1.373l7.609 12.686c1.137 1.893.521 4.35-1.373 5.486-.642.387-1.353.57-2.052.57z" fill="#4c241d"/></g></svg>